# xmcd
#
# Track frame offsets: 
#        150
#        19963
#        37350
#        52938
#        69750
#        85988
#        99063
#        120725
#        130150
#        154288
#
# Disc length: 2321 seconds
#
# Revision: 0
# Processed by: cddbd v1.5.2PL0 Copyright (c) Steve Scherf et al.
# Submitted via: ExactAudioCopy v0.95b4
#
DISCID=7d090f0a
DTITLE=Freddie AGUILAR - Minamahal Kita
DYEAR=1993
DGENRE=Pop-Folk
TTITLE0=Minamahal Kita
TTITLE1=Inday Ng Buhay Ko
TTITLE2=Ang Dalangang Pilipina
TTITLE3=Sa LumangSimbahan
TTITLE4=Birheng Wlang Dambana
TTITLE5=Ako'y Ginulat Mo
TTITLE6=Sinasaktan
TTITLE7=Waray-Waray
TTITLE8=Tako'y mga Pinoy
TTITLE9=Rosas
EXTD=
EXTT0=
EXTT1=
EXTT2=
EXTT3=
EXTT4=
EXTT5=
EXTT6=
EXTT7=
EXTT8=
EXTT9=
PLAYORDER=
